<?xml version="1.0" standalone="no"?>
<!DOCTYPE svg PUBLIC "-//W3C//DTD SVG 20010904//EN"
 "http://www.w3.org/TR/2001/REC-SVG-20010904/DTD/svg10.dtd">
<svg version="1.0" xmlns="http://www.w3.org/2000/svg"
 width="225.000000pt" height="225.000000pt" viewBox="0 0 225.000000 225.000000"
 preserveAspectRatio="xMidYMid meet">
<metadata>
Created by potrace 1.11, written by Peter Selinger 2001-2013
</metadata>
<g transform="translate(0.000000,225.000000) scale(0.100000,-0.100000)"
fill="#000000" stroke="none">
<path d="M891 234 c0 -11 3 -14 6 -6 3 7 2 16 -1 19 -3 4 -6 -2 -5 -13z"/>
<path d="M1188 190 c-1 -28 0 -50 5 -50 4 0 7 23 7 50 0 65 -7 65 -12 0z"/>
<path d="M1710 216 c0 -2 7 -7 16 -10 8 -3 12 -2 9 4 -6 10 -25 14 -25 6z"/>
<path d="M557 189 c7 -7 15 -10 18 -7 3 3 -2 9 -12 12 -14 6 -15 5 -6 -5z"/>
<path d="M1490 188 c0 -10 27 -10 34 0 2 4 -4 8 -15 8 -10 0 -19 -4 -19 -8z"/>
<path d="M1693 183 c9 -2 23 -2 30 0 6 3 -1 5 -18 5 -16 0 -22 -2 -12 -5z"/>
<path d="M630 158 c0 -4 4 -8 9 -8 6 0 12 4 15 8 3 5 -1 9 -9 9 -8 0 -15 -4
-15 -9z"/>
<path d="M877 163 c-4 -3 -7 -15 -7 -26 0 -25 13 -14 15 13 2 22 1 23 -8 13z"/>
<path d="M1091 144 c0 -11 3 -14 6 -6 3 7 2 16 -1 19 -3 4 -6 -2 -5 -13z"/>
<path d="M11 134 c0 -11 3 -14 6 -6 3 7 2 16 -1 19 -3 4 -6 -2 -5 -13z"/>
<path d="M1051 134 c0 -11 3 -14 6 -6 3 7 2 16 -1 19 -3 4 -6 -2 -5 -13z"/>
<path d="M1777 144 c-3 -3 -23 -12 -44 -19 -21 -8 -30 -14 -20 -15 18 0 77 27
77 35 0 7 -5 6 -13 -1z"/>
<path d="M504 133 c3 -3 -2 -12 -12 -19 -14 -12 -12 -12 16 -3 38 13 39 15 11
22 -12 3 -18 3 -15 0z"/>
<path d="M808 116 c3 -11 7 -15 9 -9 2 6 13 9 23 6 11 -3 20 -1 20 5 0 5 -13
12 -29 14 -24 4 -27 1 -23 -16z"/>
<path d="M535 110 c-26 -17 -54 -19 -235 -21 -113 0 -211 0 -219 2 -7 2 -16
-2 -19 -10 -3 -9 0 -11 8 -6 9 5 11 4 6 -4 -11 -18 -26 -3 -27 27 -1 20 -3 22
-6 8 -4 -15 -7 -16 -14 -5 -6 9 -9 10 -9 2 0 -24 62 -83 98 -93 24 -6 378 -10
1003 -10 875 0 972 2 1018 17 37 11 50 20 46 30 -3 8 -5 19 -5 24 0 6 -5 7
-12 3 -7 -4 -8 -3 -4 5 9 14 26 5 26 -15 0 -21 23 -12 26 10 1 10 0 15 -3 12
-4 -3 -12 -1 -19 5 -12 10 -67 2 -60 -10 2 -3 -9 -6 -24 -6 -15 0 -26 3 -23 8
2 4 -51 7 -119 8 -68 0 -136 3 -153 6 -35 6 -45 6 -108 -1 -32 -3 -45 -1 -41
6 5 7 -3 9 -22 4 -48 -11 -84 -13 -84 -4 0 4 5 8 12 8 6 0 8 3 5 7 -4 3 -15
-1 -25 -11 -15 -13 -24 -14 -43 -6 -23 10 -23 10 -1 6 12 -2 20 -1 17 4 -7 11
-100 3 -98 -8 1 -5 -9 -10 -22 -10 -16 0 -22 5 -18 14 3 8 0 14 -6 14 -6 0
-11 -7 -11 -15 0 -19 -105 -22 -114 -2 -5 10 -7 10 -12 0 -7 -15 -34 -17 -34
-3 0 5 8 14 18 19 15 9 14 10 -6 11 -16 0 -26 -7 -29 -20 -3 -11 -12 -20 -20
-20 -10 0 -14 7 -11 18 4 13 -1 18 -18 20 -13 1 -26 -3 -29 -8 -3 -6 1 -7 9
-4 10 4 16 1 16 -10 0 -13 -5 -14 -26 -6 -19 8 -31 7 -42 -2 -12 -10 -16 -10
-19 0 -3 6 -12 12 -21 12 -14 0 -14 -2 -3 -9 9 -6 2 -8 -20 -6 -52 4 -56 6
-29 15 24 8 24 8 -5 8 -16 0 -37 2 -46 6 -10 4 -20 3 -24 -3 -4 -7 4 -11 19
-11 14 0 26 -3 26 -7 0 -12 -240 -15 -276 -4 -18 5 -37 5 -46 0 -11 -6 -18 -4
-22 7 -4 10 -13 13 -27 9 -15 -5 -19 -4 -15 4 9 14 8 13 -29 -9z m53 -17 c-10
-2 -26 -2 -35 0 -10 3 -2 5 17 5 19 0 27 -2 18 -5z m-445 -30 c-7 -2 -19 -2
-25 0 -7 3 -2 5 12 5 14 0 19 -2 13 -5z"/>
<path d="M660 120 c0 -5 5 -10 10 -10 6 0 10 5 10 10 0 6 -4 10 -10 10 -5 0
-10 -4 -10 -10z"/>
<path d="M1815 120 c-3 -5 -2 -10 4 -10 5 0 13 5 16 10 3 6 2 10 -4 10 -5 0
-13 -4 -16 -10z"/>
</g>
</svg>
